HIERARCHY
ROOT Pelvis
{
	OFFSET 0.000000 0.000000 0.000000
	CHANNELS 6 Xposition Yposition Zposition Xrotation Yrotation Zrotation
	JOINT LeftUpLeg_virtual
	{
		OFFSET 0.000000 0.000000 0.000000
		CHANNELS 3 Xrotation Yrotation Zrotation
		JOINT LeftUpLeg
		{
			OFFSET 18.735201 -5.666702 -4.541200
			CHANNELS 3 Xrotation Yrotation Zrotation
			JOINT LeftLeg
			{
				OFFSET -0.021200 -31.938179 0.493100
				CHANNELS 3 Xrotation Yrotation Zrotation
				JOINT LeftFoot
				{
					OFFSET 0.021200 -31.938179 -4.336299
					CHANNELS 3 Xrotation Yrotation Zrotation
					JOINT LeftToeBase
					{
						OFFSET 0.943001 -26.722000 15.023500
						CHANNELS 3 Xrotation Yrotation Zrotation
						End Site
						{
							OFFSET 0 0 0
						}
					}
				}
			}
		}
	}
	JOINT RightUpLeg_virtual
	{
		OFFSET 0.000000 0.000000 0.000000
		CHANNELS 3 Xrotation Yrotation Zrotation
		JOINT RightUpLeg
		{
			OFFSET -18.735201 -5.666702 -4.541200
			CHANNELS 3 Xrotation Yrotation Zrotation
			JOINT RightLeg
			{
				OFFSET 0.018946 -31.938133 0.493100
				CHANNELS 3 Xrotation Yrotation Zrotation
				JOINT RightFoot
				{
					OFFSET -0.018946 -31.938126 -4.336299
					CHANNELS 3 Xrotation Yrotation Zrotation
					JOINT RightToeBase
					{
						OFFSET -0.943001 -26.722004 15.023500
						CHANNELS 3 Xrotation Yrotation Zrotation
						End Site
						{
							OFFSET 0 0 0
						}
					}
				}
			}
		}
	}
	JOINT Hips_virtual
	{
		OFFSET 0.000000 0.000000 0.000000
		CHANNELS 3 Xrotation Yrotation Zrotation
		JOINT Hips
		{
			OFFSET -0.000000 -0.000000 -0.000000
			CHANNELS 3 Xrotation Yrotation Zrotation
			JOINT Spine
			{
				OFFSET 0.000000 10.199997 -0.299500
				CHANNELS 3 Xrotation Yrotation Zrotation
				JOINT Spine1
				{
					OFFSET 0.000000 11.900002 -1.516600
					CHANNELS 3 Xrotation Yrotation Zrotation
					JOINT Spine2
					{
						OFFSET 0.000000 13.600006 -2.842500
						CHANNELS 3 Xrotation Yrotation Zrotation
						JOINT Neck_virtual
						{
							OFFSET 0.000000 0.000000 0.000000
							CHANNELS 3 Xrotation Yrotation Zrotation
							JOINT Neck
							{
								OFFSET 0.000000 9.624100 -2.890100
								CHANNELS 3 Xrotation Yrotation Zrotation
								JOINT Head
								{
									OFFSET 0.000000 14.068802 -1.351900
									CHANNELS 3 Xrotation Yrotation Zrotation
									End Site
									{
										OFFSET 0 0 0
									}
								}
							}
						}
						JOINT LeftShoulder_virtual
						{
							OFFSET 0.000000 0.000000 0.000000
							CHANNELS 3 Xrotation Yrotation Zrotation
							JOINT LeftShoulder
							{
								OFFSET 15.263000 10.923401 -0.547700
								CHANNELS 3 Xrotation Yrotation Zrotation
								JOINT LeftArm
								{
									OFFSET 25.438599 -2.830597 -13.032500
									CHANNELS 3 Xrotation Yrotation Zrotation
									JOINT LeftForeArm
									{
										OFFSET 29.960503 0.000000 0.000000
										CHANNELS 3 Xrotation Yrotation Zrotation
										JOINT LeftHand
										{
											OFFSET 27.849251 0.000000 0.000000
											CHANNELS 3 Xrotation Yrotation Zrotation
											End Site
											{
												OFFSET 0 0 0
											}
										}
									}
								}
							}
						}
						JOINT RightShoulder_virtual
						{
							OFFSET 0.000000 0.000000 0.000000
							CHANNELS 3 Xrotation Yrotation Zrotation
							JOINT RightShoulder
							{
								OFFSET -15.263000 10.923401 -0.547700
								CHANNELS 3 Xrotation Yrotation Zrotation
								JOINT RightArm
								{
									OFFSET -25.438599 -2.830597 -13.032500
									CHANNELS 3 Xrotation Yrotation Zrotation
									JOINT RightForeArm
									{
										OFFSET -29.960503 0.000000 0.000000
										CHANNELS 3 Xrotation Yrotation Zrotation
										JOINT RightHand
										{
											OFFSET -27.849251 0.000000 0.000000
											CHANNELS 3 Xrotation Yrotation Zrotation
											End Site
											{
												OFFSET 0 0 0
											}
										}
									}
								}
							}
						}
					}
				}
			}
		}
	}
}
MOTION
Frames: 10
Frame Time: 0.03333333
3.622329 92.487488 11.389202 0.000000 0.000000 0.000000 3.110882 -34.456686 -7.745349 -34.257709 4.619760 5.723297 39.276791 4.435146 0.120924 -10.198686 4.376640 -2.457599 0.000000 0.000000 0.000000 12.674617 -25.092365 5.125239 -16.031731 -13.679472 -13.466065 32.717197 -2.202909 -2.180604 -17.331462 -4.872252 5.850927 0.000000 0.000000 0.000000 -9.946985 -27.012447 -1.716493 -17.499631 -12.150019 -6.979661 8.286790 -3.847624 -1.760901 2.826235 -2.013842 -0.712732 0.000000 0.000000 0.000000 3.535295 -1.795307 -0.252656 0.039008 -0.200214 -0.433860 0.000000 0.000000 0.000000 3.930989 -3.242167 -0.249386 1.405032 -12.628041 -10.207673 -23.186023 -7.169460 -42.208424 -4.421216 -47.049280 -2.760140 0.000000 0.000000 0.000000 4.267400 -0.656527 1.505823 3.014338 6.612975 10.491558 -6.794506 -3.046328 52.040878 -3.825656 50.693142 6.808038 0.000000 0.000000 0.000000 
3.941485 92.506798 11.834661 0.000000 0.000000 0.000000 3.002900 -34.974530 -7.981610 -34.310181 4.567111 5.480878 39.334107 4.926822 0.046707 -10.247049 4.887998 -2.253990 0.000000 0.000000 0.000000 12.587403 -25.565253 5.076939 -16.228101 -13.779777 -13.605999 33.152085 -2.318571 -2.191183 -16.979514 -4.949554 5.766005 0.000000 0.000000 0.000000 -10.041320 -27.522548 -1.798281 -17.825088 -13.157154 -7.292859 8.303960 -3.895219 -1.778831 2.812603 -2.030194 -0.715308 0.000000 0.000000 0.000000 3.514020 -1.797308 -0.245774 0.025852 -0.197289 -0.432746 0.000000 0.000000 0.000000 3.918400 -3.262157 -0.250679 1.396757 -12.671662 -10.236989 -23.159945 -7.179935 -42.317485 -4.440872 -47.086890 -2.805944 0.000000 0.000000 0.000000 4.281341 -0.666000 1.495272 3.037519 6.569304 10.473724 -6.790322 -3.122932 51.862381 -3.765155 50.619737 6.664191 0.000000 0.000000 0.000000 
4.259882 92.519745 12.236816 0.000000 0.000000 0.000000 2.872390 -35.564430 -8.222784 -34.395077 4.496368 5.243339 39.406650 5.433728 -0.039775 -10.308603 5.414948 -2.059400 0.000000 0.000000 0.000000 12.490261 -26.080635 5.068797 -16.460302 -13.894953 -13.713421 33.645829 -2.485306 -2.168146 -16.599236 -5.091532 5.706025 0.000000 0.000000 0.000000 -10.132941 -28.015013 -1.881894 -18.127435 -14.106143 -7.625934 8.327478 -3.939683 -1.797623 2.799433 -2.044730 -0.717001 0.000000 0.000000 0.000000 3.492550 -1.797912 -0.245461 0.013076 -0.194369 -0.435491 0.000000 0.000000 0.000000 3.909507 -3.278643 -0.251087 1.392224 -12.706249 -10.269598 -23.167273 -7.184139 -42.453358 -4.481086 -47.144725 -2.869304 0.000000 0.000000 0.000000 4.297881 -0.674559 1.481989 3.063069 6.525109 10.447176 -6.779072 -3.213481 51.679728 -3.696571 50.517285 6.508960 0.000000 0.000000 0.000000 
4.575213 92.538498 12.576950 0.000000 0.000000 0.000000 2.765116 -36.080215 -8.479682 -34.430451 4.451309 4.980629 39.443195 5.886902 -0.203276 -10.395856 5.926097 -2.017559 0.000000 0.000000 0.000000 12.415663 -26.947678 5.153559 -16.740213 -14.119265 -13.795929 34.239960 -2.821657 -2.128310 -16.158986 -5.399035 5.566040 0.000000 0.000000 0.000000 -10.226482 -28.503512 -1.971354 -18.433388 -15.048894 -8.009193 8.358586 -3.979380 -1.814376 2.789329 -2.057314 -0.717805 0.000000 0.000000 0.000000 3.471693 -1.798024 -0.247234 0.001194 -0.190982 -0.440284 0.000000 0.000000 0.000000 3.900680 -3.290936 -0.249108 1.391214 -12.727472 -10.297737 -23.190261 -7.178070 -42.600098 -4.531258 -47.203355 -2.940828 0.000000 0.000000 0.000000 4.316857 -0.683091 1.469354 3.091057 6.480396 10.423343 -6.765821 -3.297246 51.505183 -3.622898 50.419661 6.349550 0.000000 0.000000 0.000000 
4.881739 92.571884 12.906856 0.000000 0.000000 0.000000 2.653622 -36.616200 -8.740102 -34.476104 4.404045 4.721368 39.498670 6.337142 -0.391897 -10.477033 6.442315 -2.014115 0.000000 0.000000 0.000000 12.317546 -27.757373 5.290925 -17.069454 -14.331835 -13.814152 34.915889 -3.166583 -2.081056 -15.665189 -5.714009 5.431071 0.000000 0.000000 0.000000 -10.316592 -28.956372 -2.061237 -18.716566 -15.894371 -8.404100 8.384005 -4.011918 -1.826039 2.773788 -2.065984 -0.714380 0.000000 0.000000 0.000000 3.443191 -1.796759 -0.248946 -0.013033 -0.187812 -0.444626 0.000000 0.000000 0.000000 3.890023 -3.299514 -0.245486 1.391075 -12.740006 -10.324236 -23.223379 -7.170822 -42.769975 -4.584694 -47.273816 -3.018102 0.000000 0.000000 0.000000 4.331631 -0.689157 1.458339 3.114789 6.442125 10.412605 -6.778579 -3.358141 51.356046 -3.562231 50.341397 6.206467 0.000000 0.000000 0.000000 
5.198913 92.627670 13.223490 0.000000 0.000000 0.000000 2.551890 -37.167321 -8.980678 -34.514582 4.347453 4.480939 39.582855 6.783710 -0.595085 -10.532247 6.958912 -2.031857 0.000000 0.000000 0.000000 12.238958 -28.525307 5.510690 -17.398794 -14.548569 -13.745913 35.691768 -3.536600 -2.044974 -15.095715 -6.040760 5.257507 0.000000 0.000000 0.000000 -10.390586 -29.426036 -2.146294 -18.939879 -16.769083 -8.776411 8.419173 -4.046479 -1.833078 2.761578 -2.075003 -0.706935 0.000000 0.000000 0.000000 3.421760 -1.796876 -0.247848 -0.024227 -0.184771 -0.447974 0.000000 0.000000 0.000000 3.877895 -3.308794 -0.237429 1.392493 -12.755268 -10.337968 -23.264005 -7.192072 -42.965448 -4.644316 -47.378492 -3.107707 0.000000 0.000000 0.000000 4.350584 -0.695335 1.454709 3.138811 6.409415 10.426410 -6.784830 -3.399961 51.228055 -3.501130 50.278289 6.073457 0.000000 0.000000 0.000000 
5.537618 92.676605 13.517562 0.000000 0.000000 0.000000 2.539511 -37.560754 -9.124004 -34.448175 4.302191 4.303626 39.552731 7.278957 -0.755349 -10.616284 7.511027 -1.953152 0.000000 0.000000 0.000000 12.046278 -29.744559 5.695156 -17.963440 -14.857704 -13.793692 36.210945 -4.164055 -2.118239 -14.706948 -6.568399 4.724771 0.000000 0.000000 0.000000 -10.464451 -29.890912 -2.231248 -19.178311 -17.631315 -9.135545 8.459457 -4.073338 -1.836967 2.752287 -2.078975 -0.696907 0.000000 0.000000 0.000000 3.404759 -1.795851 -0.244208 -0.032406 -0.181488 -0.449861 0.000000 0.000000 0.000000 3.869852 -3.318021 -0.225801 1.398703 -12.766460 -10.337722 -23.272604 -7.218898 -43.157585 -4.684407 -47.489773 -3.187841 0.000000 0.000000 0.000000 4.367962 -0.698696 1.459060 3.159832 6.390669 10.469760 -6.801234 -3.389962 51.146779 -3.456375 50.257085 5.975260 0.000000 0.000000 0.000000 
5.875937 92.727379 13.812818 0.000000 0.000000 0.000000 2.561760 -37.950737 -9.196821 -34.354735 4.234867 4.182634 39.473565 7.765461 -0.921227 -10.711944 8.061673 -1.889180 0.000000 0.000000 0.000000 11.896543 -30.829821 5.959219 -18.500645 -15.148801 -13.752184 36.783943 -4.790707 -2.236334 -14.277999 -7.068994 4.112205 0.000000 0.000000 0.000000 -10.543064 -30.341889 -2.313326 -19.443573 -18.466943 -9.480700 8.506921 -4.090491 -1.845805 2.744195 -2.079846 -0.690134 0.000000 0.000000 0.000000 3.391622 -1.790638 -0.239726 -0.038821 -0.177000 -0.451147 0.000000 0.000000 0.000000 3.862399 -3.324112 -0.215436 1.407238 -12.771805 -10.340469 -23.264791 -7.262720 -43.408905 -4.733907 -47.645436 -3.293184 0.000000 0.000000 0.000000 4.384034 -0.700494 1.470693 3.176598 6.370007 10.548551 -6.805751 -3.357875 51.071295 -3.397427 50.249449 5.871147 0.000000 0.000000 0.000000 
6.198665 92.780914 14.111516 0.000000 0.000000 0.000000 2.568137 -38.364500 -9.283934 -34.292481 4.168337 4.061159 39.353508 8.228850 -1.097486 -10.845818 8.593664 -1.858492 0.000000 0.000000 0.000000 11.796754 -31.641213 6.259554 -18.959716 -15.380509 -13.638268 37.426848 -5.334745 -2.363289 -13.788221 -7.483903 3.531578 0.000000 0.000000 0.000000 -10.615445 -30.806257 -2.387796 -19.689409 -19.350365 -9.780887 8.571672 -4.093952 -1.860474 2.742810 -2.071654 -0.686800 0.000000 0.000000 0.000000 3.385464 -1.785356 -0.233949 -0.042300 -0.174231 -0.452077 0.000000 0.000000 0.000000 3.848859 -3.328695 -0.203938 1.406588 -12.776731 -10.345771 -23.315115 -7.371640 -43.680696 -4.803401 -47.902528 -3.412349 0.000000 0.000000 0.000000 4.393002 -0.697614 1.482820 3.183692 6.372875 10.628130 -6.839507 -3.268288 50.997099 -3.345702 50.282828 5.770884 0.000000 0.000000 0.000000 
6.448783 92.788086 14.415527 0.000000 0.000000 0.000000 2.656032 -38.779844 -9.287808 -34.154146 4.084748 3.993621 39.328065 8.693215 -1.278448 -10.887212 9.129783 -1.827874 0.000000 0.000000 0.000000 11.748077 -32.232018 6.593630 -19.321688 -15.569194 -13.453656 38.068585 -5.787936 -2.496276 -13.269096 -7.812483 2.989866 0.000000 0.000000 0.000000 -10.705726 -31.326260 -2.474988 -19.992536 -20.331540 -10.151046 8.704186 -4.096257 -1.890913 2.787091 -2.063349 -0.692892 0.000000 0.000000 0.000000 3.415340 -1.774990 -0.227113 -0.027967 -0.168660 -0.452448 0.000000 0.000000 0.000000 3.842933 -3.330445 -0.198361 1.414707 -12.762668 -10.374338 -23.164698 -7.530494 -43.951226 -4.762710 -48.138128 -3.481116 0.000000 0.000000 0.000000 4.417828 -0.687086 1.488493 3.208193 6.403120 10.687448 -6.789601 -3.132093 50.903160 -3.239902 50.331210 5.632048 0.000000 0.000000 0.000000 
